<svg id="SvgjsSvg1001" width="288" height="288" xmlns="http://www.w3.org/2000/svg" version="1.1" xmlns:xlink="http://www.w3.org/1999/xlink" xmlns:svgjs="http://svgjs.com/svgjs"><defs id="SvgjsDefs1002"></defs><g id="SvgjsG1008" transform="matrix(0.9167,0,0,0.9167,11.619617871093752,12.370049999999992)"><svg xmlns="http://www.w3.org/2000/svg" xmlns:xlink="http://www.w3.org/1999/xlink" enable-background="new 0 0 32 32" viewBox="0 0 32 32" width="288" height="288"><defs><linearGradient id="a"><stop offset="0" stop-color="#006192" class="stopColor000092 svgShape"></stop><stop offset="1" stop-color="#00aaff" class="stopColorff00f3 svgShape"></stop></linearGradient><linearGradient id="b" x1=".998" x2="27.363" y1="16.5" y2="16.5" gradientUnits="userSpaceOnUse" xlink:href="#a"></linearGradient></defs><path fill="url(#b)" d="M 3.4941406 2 C 3.4831406 2 3.4738906 2.0058594 3.4628906 2.0058594 C 2.1018906 2.0248584 0.99804687 3.1369063 0.99804688 4.5039062 C 0.99804688 4.7799062 1.2220469 5.0039062 1.4980469 5.0039062 L 4.9960938 5.0039062 L 4.9960938 28.5 C 4.9960938 29.879 6.1180937 31 7.4960938 31 L 27.496094 31 L 27.5 31 C 28.763 31 29.797844 30.056844 29.964844 28.839844 C 29.983844 28.786844 30 28.730922 30 28.669922 L 30 26.503906 C 29.999 26.227906 29.774047 26.003906 29.498047 26.003906 L 25.994141 26.003906 L 25.994141 4.5175781 C 25.994141 4.5125781 25.998047 4.5079581 25.998047 4.5019531 C 25.998047 3.8119531 25.716672 3.186375 25.263672 2.734375 C 24.81068 2.281375 24.184141 2 23.494141 2 L 3.4941406 2 z M 3.5136719 3 L 21.511719 3 C 21.289719 3.293 21.124828 3.6309062 21.048828 4.0039062 L 5.5097656 4.0039062 C 5.5047656 4.0039062 5.5010957 4 5.4960938 4 C 5.4910938 4 5.4854687 4.0039062 5.4804688 4.0039062 L 2.0839844 4.0039062 C 2.2909847 3.4219063 2.8460469 3.0039063 3.4980469 3.0039062 C 3.5030469 3.0039062 3.5076769 3 3.5136719 3 z M 23.498047 3.0039062 C 23.911047 3.0039062 24.284641 3.1714063 24.556641 3.4414062 C 24.826641 3.7134062 24.994141 4.087 24.994141 4.5 L 24.994141 26.5 C 24.994141 26.505 24.998047 26.509595 24.998047 26.515625 L 24.998047 28.5 C 24.998047 29.065 25.192766 29.581 25.509766 30 L 7.4980469 30 C 6.6710469 30 5.9980469 29.327 5.9980469 28.5 C 5.9980469 28.496 5.9960937 28.492301 5.9960938 28.488281 L 5.9960938 5.0039062 L 21.498047 5.0039062 C 21.774047 5.0039062 21.998047 4.7799062 21.998047 4.5039062 C 21.998047 3.6769063 22.671047 3.0039063 23.498047 3.0039062 z M 25.998047 27.003906 L 28.998047 27.003906 L 28.998047 28.5 C 28.998047 29.327 28.325047 30 27.498047 30 C 26.671047 30 25.998047 29.327 25.998047 28.5 L 25.998047 27.003906 z "></path></svg></g></svg>