<svg height="441pt" viewBox="-40 0 441 441.59027" width="441pt" xmlns="http://www.w3.org/2000/svg"><path d="m250.796875 302.03125-36.832031-81.03125-51.566406 7.367188-73.664063-221-29.46875 58.933593 66.300781 206.265625h73.664063l14.734375 44.199219zm0 0" fill="#238892"/><path d="m74 302.03125 36.832031-81.03125 51.566407 7.367188 73.667968-221 29.464844 58.933593-66.300781 206.265625h-73.664063l-14.734375 44.199219zm0 0" fill="#36afad"/><path d="m74 302.03125 36.832031 14.734375-66.300781 117.867187-36.832031-14.734374zm0 0" fill="#ad6327"/><path d="m250.796875 302.03125-36.832031 14.734375 66.296875 117.867187 36.835937-14.734374zm0 0" fill="#ad6327"/><path d="m191.863281 250.464844c0 16.273437-13.191406 29.46875-29.464843 29.46875-16.273438 0-29.464844-13.195313-29.464844-29.46875 0-16.273438 13.191406-29.464844 29.464844-29.464844 16.273437 0 29.464843 13.191406 29.464843 29.464844zm0 0" fill="#aabece"/><path d="m324.464844 88.402344c-4.070313 0-7.367188-3.300782-7.367188-7.367188-.015625-12.199218-9.902344-22.085937-22.101562-22.101562-4.066406 0-7.367188-3.296875-7.367188-7.367188 0-4.066406 3.300782-7.363281 7.367188-7.363281 12.203125-.015625 22.085937-9.902344 22.101562-22.101563 0-4.070312 3.296875-7.367187 7.367188-7.367187 4.066406 0 7.367187 3.296875 7.367187 7.367187.011719 12.199219 9.898438 22.085938 22.097657 22.101563 4.070312 0 7.367187 3.296875 7.367187 7.363281 0 4.070313-3.296875 7.367188-7.367187 7.367188-12.199219.015625-22.085938 9.902344-22.097657 22.101562 0 4.066406-3.300781 7.367188-7.367187 7.367188zm-7.390625-36.835938c2.800781 2.105469 5.285156 4.59375 7.390625 7.390625 2.101562-2.796875 4.589844-5.285156 7.386718-7.390625-2.796874-2.101562-5.285156-4.589844-7.386718-7.386718-2.105469 2.796874-4.589844 5.285156-7.390625 7.386718zm0 0" fill="#fdbd40"/><path d="m37.167969 213.632812c-4.070313 0-7.367188-3.296874-7.367188-7.367187-.015625-12.199219-9.902343-22.085937-22.101562-22.097656-4.066407 0-7.367188-3.300781-7.367188-7.367188 0-4.070312 3.300781-7.367187 7.367188-7.367187 12.203125-.011719 22.085937-9.902344 22.101562-22.101563 0-4.066406 3.296875-7.363281 7.367188-7.363281 4.066406 0 7.367187 3.296875 7.367187 7.363281.011719 12.203125 9.898438 22.089844 22.097656 22.101563 4.070313 0 7.367188 3.296875 7.367188 7.367187 0 4.066407-3.296875 7.367188-7.367188 7.367188-12.199218.011719-22.085937 9.898437-22.097656 22.097656-.003906 4.070313-3.300781 7.367187-7.367187 7.367187zm-7.390625-36.832031c2.796875 2.101563 5.285156 4.589844 7.386718 7.386719 2.105469-2.796875 4.59375-5.285156 7.390626-7.386719-2.796876-2.105469-5.285157-4.589843-7.390626-7.386719-2.101562 2.796876-4.589843 5.28125-7.386718 7.386719zm0 0" fill="#fdbd40"/><path d="m101.871094 222.917969-34.433594 75.757812-66.15625 117.609375c-1.996094 3.550782-.734375 8.046875 2.816406 10.039063.277344.15625.566406.296875.863282.414062l36.835937 14.734375c3.429687 1.371094 7.34375-.011718 9.15625-3.230468l66.296875-117.867188c.113281-.199219.492188-1.042969.570312-1.277344l13.054688-39.164062h9.648438c12.957031 9.84375 30.894531 9.820312 43.820312-.0625.109375.003906.199219.0625.308594.0625h9.269531l13.054687 39.164062c.078126.238282.453126 1.078125.566407 1.277344l66.300781 117.867188c1.8125 3.21875 5.726562 4.601562 9.15625 3.230468l36.832031-14.734375c3.78125-1.515625 5.613281-5.808593 4.097657-9.585937-.117188-.296875-.257813-.585938-.414063-.867188l-66.152344-117.609375-34.265625-75.378906c-.050781-.109375-.144531-.175781-.199218-.277344l49.648437-154.460937c.585937-1.835938.433594-3.828125-.425781-5.550782l-29.46875-58.933593c-1.347656-2.648438-4.144532-4.242188-7.109375-4.0546878-2.972657.2148438-5.523438 2.1914068-6.46875 5.0195308l-66.675781 200.03125-66.675782-200.03125c-1.289062-3.859374-5.460937-5.945312-9.320312-4.660156-1.855469.621094-3.386719 1.949219-4.257813 3.695313l-29.46875 58.933593c-.859375 1.722657-1.011719 3.714844-.425781 5.550782zm-60.59375 202.476562-23.035156-9.210937 59.011718-104.914063 23.035156 9.214844zm77.300781-155.160156-12.261719 36.789063-22.417968-8.96875 31.355468-68.984376 15.828125 2.261719c-6.386719 10.1875-7.285156 22.882813-2.394531 33.867188h-3.121094c-3.171875 0-5.988281 2.027343-6.988281 5.035156zm21.722656-19.769531c0-12.203125 9.890625-22.097656 22.097657-22.097656 12.207031 0 22.097656 9.894531 22.097656 22.097656 0 12.207031-9.890625 22.101562-22.097656 22.101562-12.199219-.015625-22.085938-9.898437-22.097657-22.101562zm143.21875 174.929687-59.007812-104.910156 23.03125-9.214844 59.011719 104.914063zm-42.621093-127.339843-22.417969 8.96875-11.496094-34.496094 9.242187-28.753906zm-3.46875-271.484376 20.171874 40.339844-58.523437 182.054688c-.632813-15.089844-10.441406-28.25-24.722656-33.167969zm-150.058594 0 63.074218 189.226563c-2.003906.695313-3.9375 1.5625-5.789062 2.59375l-30.148438-4.304687-47.308593-147.175782zm0 0"/><path d="m294.996094 58.933594c12.203125.015625 22.085937 9.902344 22.101562 22.101562 0 4.066406 3.296875 7.367188 7.367188 7.367188 4.066406 0 7.367187-3.300782 7.367187-7.367188.011719-12.199218 9.898438-22.085937 22.097657-22.101562 4.070312 0 7.367187-3.296875 7.367187-7.367188 0-4.066406-3.296875-7.363281-7.367187-7.363281-12.199219-.015625-22.085938-9.902344-22.097657-22.101563 0-4.070312-3.300781-7.367187-7.367187-7.367187-4.070313 0-7.367188 3.296875-7.367188 7.367187-.015625 12.199219-9.902344 22.085938-22.101562 22.101563-4.066406 0-7.367188 3.296875-7.367188 7.363281 0 4.070313 3.300782 7.367188 7.367188 7.367188zm29.46875-14.753906c2.101562 2.796874 4.589844 5.285156 7.386718 7.386718-2.796874 2.105469-5.285156 4.59375-7.386718 7.390625-2.105469-2.796875-4.589844-5.285156-7.390625-7.390625 2.800781-2.101562 5.285156-4.589844 7.390625-7.386718zm0 0"/><path d="m7.699219 184.167969c12.199219.011719 22.085937 9.898437 22.101562 22.097656 0 4.070313 3.296875 7.367187 7.363281 7.367187 4.070313 0 7.367188-3.296874 7.367188-7.367187.015625-12.199219 9.902344-22.085937 22.101562-22.097656 4.066407 0 7.367188-3.300781 7.367188-7.367188 0-4.070312-3.300781-7.367187-7.367188-7.367187-12.199218-.011719-22.085937-9.902344-22.101562-22.101563 0-4.066406-3.296875-7.363281-7.367188-7.363281-4.066406 0-7.363281 3.296875-7.363281 7.363281-.015625 12.203125-9.902343 22.089844-22.101562 22.101563-4.070313 0-7.367188 3.296875-7.367188 7.367187 0 4.066407 3.300781 7.367188 7.367188 7.367188zm29.46875-14.753907c2.101562 2.796876 4.589843 5.28125 7.386719 7.386719-2.796876 2.101563-5.285157 4.589844-7.386719 7.386719-2.105469-2.796875-4.589844-5.285156-7.390625-7.386719 2.796875-2.105469 5.285156-4.589843 7.390625-7.386719zm0 0"/></svg>